<mxfile host="app.diagrams.net" agent="Mozilla/5.0 (Macintosh; Intel Mac OS X 10_15_7) AppleWebKit/605.1.15 (KHTML, like Gecko) Version/18.3.1 Safari/605.1.15" version="26.1.3">
  <diagram id="l8hXMBHkgcEJcSW0mbfh" name="Page-1">
    <mxGraphModel dx="1402" dy="754" grid="1" gridSize="10" guides="1" tooltips="1" connect="1" arrows="1" fold="1" page="1" pageScale="1" pageWidth="1169" pageHeight="827" math="0" shadow="0">
      <root>
        <mxCell id="0" />
        <mxCell id="1" parent="0" />
        <mxCell id="hAhL7ANWd5JTLCIhCtc--9" style="rounded=0;orthogonalLoop=1;jettySize=auto;html=1;endArrow=none;startFill=0;" edge="1" parent="1" source="hAhL7ANWd5JTLCIhCtc--12" target="hAhL7ANWd5JTLCIhCtc--6">
          <mxGeometry relative="1" as="geometry">
            <mxPoint x="288" y="331" as="sourcePoint" />
          </mxGeometry>
        </mxCell>
        <mxCell id="hAhL7ANWd5JTLCIhCtc--2" value="Internet" style="outlineConnect=0;dashed=0;verticalLabelPosition=bottom;verticalAlign=top;align=center;html=1;shape=mxgraph.aws3.internet;fillColor=#D2D3D3;gradientColor=none;" vertex="1" parent="1">
          <mxGeometry x="880" y="190" width="79.5" height="79.5" as="geometry" />
        </mxCell>
        <mxCell id="hAhL7ANWd5JTLCIhCtc--15" style="rounded=0;orthogonalLoop=1;jettySize=auto;html=1;endArrow=none;startFill=0;" edge="1" parent="1" source="hAhL7ANWd5JTLCIhCtc--4" target="hAhL7ANWd5JTLCIhCtc--1">
          <mxGeometry relative="1" as="geometry" />
        </mxCell>
        <mxCell id="hAhL7ANWd5JTLCIhCtc--4" value="Tailscale&#xa;" style="shape=image;verticalLabelPosition=bottom;labelBackgroundColor=default;verticalAlign=top;aspect=fixed;imageAspect=0;image=https://cdn-1.webcatalog.io/catalog/tailscale/tailscale-icon.png;" vertex="1" parent="1">
          <mxGeometry x="610" y="361.5" width="84" height="84" as="geometry" />
        </mxCell>
        <mxCell id="hAhL7ANWd5JTLCIhCtc--13" style="rounded=0;orthogonalLoop=1;jettySize=auto;html=1;entryX=0;entryY=0.5;entryDx=0;entryDy=0;endArrow=none;startFill=0;" edge="1" parent="1" source="hAhL7ANWd5JTLCIhCtc--5" target="hAhL7ANWd5JTLCIhCtc--12">
          <mxGeometry relative="1" as="geometry" />
        </mxCell>
        <mxCell id="hAhL7ANWd5JTLCIhCtc--5" value="Proxmox Server" style="image;html=1;image=img/lib/clip_art/computers/Server_Rack_Partial_128x128.png" vertex="1" parent="1">
          <mxGeometry x="230" y="214" width="80" height="80" as="geometry" />
        </mxCell>
        <mxCell id="hAhL7ANWd5JTLCIhCtc--7" style="rounded=0;orthogonalLoop=1;jettySize=auto;html=1;endArrow=none;startFill=0;" edge="1" parent="1" source="hAhL7ANWd5JTLCIhCtc--10" target="hAhL7ANWd5JTLCIhCtc--4">
          <mxGeometry relative="1" as="geometry" />
        </mxCell>
        <mxCell id="hAhL7ANWd5JTLCIhCtc--6" value="Tailscale&#xa;" style="shape=image;verticalLabelPosition=bottom;labelBackgroundColor=default;verticalAlign=top;aspect=fixed;imageAspect=0;image=https://cdn-1.webcatalog.io/catalog/tailscale/tailscale-icon.png;" vertex="1" parent="1">
          <mxGeometry x="370" y="361.5" width="84" height="84" as="geometry" />
        </mxCell>
        <mxCell id="hAhL7ANWd5JTLCIhCtc--11" value="" style="rounded=0;orthogonalLoop=1;jettySize=auto;html=1;endArrow=none;startFill=0;" edge="1" parent="1" source="hAhL7ANWd5JTLCIhCtc--6" target="hAhL7ANWd5JTLCIhCtc--10">
          <mxGeometry relative="1" as="geometry">
            <mxPoint x="444" y="294" as="sourcePoint" />
            <mxPoint x="610" y="381" as="targetPoint" />
          </mxGeometry>
        </mxCell>
        <mxCell id="hAhL7ANWd5JTLCIhCtc--10" value="Security" style="shape=image;verticalLabelPosition=bottom;verticalAlign=top;imageAspect=0;aspect=fixed;image=data:image/svg+xml,PHN2ZyB4bWxucz0iaHR0cDovL3d3dy53My5vcmcvMjAwMC9zdmciIHZlcnNpb249IjEiIHZpZXdCb3g9IjAgMCA0OCA0OCIgZW5hYmxlLWJhY2tncm91bmQ9Im5ldyAwIDAgNDggNDgiPiYjeGE7ICAgIDxwYXRoIGZpbGw9IiM0MjQyNDIiIGQ9Ik0yNCw0Yy01LjUsMC0xMCw0LjUtMTAsMTB2NGg0di00YzAtMy4zLDIuNy02LDYtNnM2LDIuNyw2LDZ2NGg0di00QzM0LDguNSwyOS41LDQsMjQsNHoiLz4mI3hhOyAgICA8cGF0aCBmaWxsPSIjRkI4QzAwIiBkPSJNMzYsNDRIMTJjLTIuMiwwLTQtMS44LTQtNFYyMmMwLTIuMiwxLjgtNCw0LTRoMjRjMi4yLDAsNCwxLjgsNCw0djE4QzQwLDQyLjIsMzguMiw0NCwzNiw0NHoiLz4mI3hhOyAgICA8Y2lyY2xlIGZpbGw9IiNDNzZFMDAiIGN4PSIyNCIgY3k9IjMxIiByPSIzIi8+JiN4YTs8L3N2Zz4=;labelBackgroundColor=#ffffff;" vertex="1" parent="1">
          <mxGeometry x="510" y="379.5" width="48" height="48" as="geometry" />
        </mxCell>
        <mxCell id="hAhL7ANWd5JTLCIhCtc--12" value="Fritzbox router" style="image;html=1;image=img/lib/clip_art/networking/Router_128x128.png" vertex="1" parent="1">
          <mxGeometry x="370" y="214" width="80" height="80" as="geometry" />
        </mxCell>
        <mxCell id="hAhL7ANWd5JTLCIhCtc--1" value="VPS Hostinger" style="image;sketch=0;aspect=fixed;html=1;points=[];align=center;fontSize=12;image=img/lib/mscae/WebHosting.svg;" vertex="1" parent="1">
          <mxGeometry x="630" y="229.25" width="50" height="50" as="geometry" />
        </mxCell>
        <mxCell id="hAhL7ANWd5JTLCIhCtc--17" style="rounded=0;orthogonalLoop=1;jettySize=auto;html=1;endArrow=none;startFill=0;" edge="1" parent="1" source="hAhL7ANWd5JTLCIhCtc--16" target="hAhL7ANWd5JTLCIhCtc--1">
          <mxGeometry relative="1" as="geometry" />
        </mxCell>
        <mxCell id="hAhL7ANWd5JTLCIhCtc--18" style="rounded=0;orthogonalLoop=1;jettySize=auto;html=1;endArrow=none;startFill=0;" edge="1" parent="1" source="hAhL7ANWd5JTLCIhCtc--16" target="hAhL7ANWd5JTLCIhCtc--2">
          <mxGeometry relative="1" as="geometry" />
        </mxCell>
        <mxCell id="hAhL7ANWd5JTLCIhCtc--16" value="Reverse Proxy" style="sketch=0;pointerEvents=1;shadow=0;dashed=0;html=1;strokeColor=none;fillColor=#505050;labelPosition=center;verticalLabelPosition=bottom;verticalAlign=top;outlineConnect=0;align=center;shape=mxgraph.office.servers.reverse_proxy;" vertex="1" parent="1">
          <mxGeometry x="760" y="170" width="51" height="53" as="geometry" />
        </mxCell>
      </root>
    </mxGraphModel>
  </diagram>
</mxfile>
